<?xml version="1.0" encoding="UTF-8"?>
<svg xmlns:xlink="http://www.w3.org/1999/xlink" xmlns="http://www.w3.org/2000/svg" width="228" height="183" id="screenshot-6b7b1b5b-6359-80c9-8001-ee09e7d0e5af" viewBox="330 326 228 183" style="-webkit-print-color-adjust: exact;" fill="none" version="1.1">
  <g id="shape-6b7b1b5b-6359-80c9-8001-ee09e7d0e5af">
    <g id="fills-6b7b1b5b-6359-80c9-8001-ee09e7d0e5af">
      <path rx="0" ry="0" d="M347.1,509C342.54,509,338.55,507.284,335.13,503.853C331.71,500.422,330,496.419,330,491.844L330,343.156C330,338.581,331.71,334.578,335.13,331.147C338.55,327.716,342.54,326,347.1,326L540.9,326C545.46,326,549.45,327.716,552.87,331.147C556.29,334.578,558,338.581,558,343.156L558,491.844C558,496.419,556.29,500.422,552.87,503.853C549.45,507.284,545.46,509,540.9,509ZM444,422.647L347.1,358.883L347.1,491.844L540.9,491.844L540.9,358.883ZM444,405.491L539.76,343.156L348.525,343.156ZM347.1,358.883L347.1,343.156L347.1,491.844Z" style="fill: rgb(170, 237, 46); fill-opacity: 1;"></path>
    </g>
  </g>
</svg>
